<svg width="20" height="20" viewBox="0 0 20 20" fill="none" xmlns="http://www.w3.org/2000/svg">
<path fill-rule="evenodd" clip-rule="evenodd" d="M13.8389 11.5742C14.1795 14.3474 15.0421 16.3158 16.0526 16.3158C17.3605 16.3158 18.4211 13.0168 18.4211 8.94737C18.4211 4.87789 17.3605 1.57895 16.0526 1.57895C15.0421 1.57895 14.1789 3.5479 13.8389 6.32053C14.5084 6.36075 15.1372 6.65501 15.5969 7.14322C16.0567 7.63143 16.3127 8.27675 16.3127 8.94737C16.3127 9.61799 16.0567 10.2633 15.5969 10.7515C15.1372 11.2397 14.5084 11.534 13.8389 11.5742ZM20 8.94737C20 13.8889 18.1147 17.8947 15.7895 17.8947C12.1053 17.8947 9.47369 13.6842 7.89474 13.6842H4.73684C3.48055 13.6842 2.27572 13.1852 1.38739 12.2968C0.499059 11.4085 0 10.2037 0 8.94737C0 7.69108 0.499059 6.48625 1.38739 5.59792C2.27572 4.70959 3.48055 4.21053 4.73684 4.21053H7.89474C9.47369 4.21053 12.1053 0 15.7895 0C18.1147 0 20 4.00579 20 8.94737ZM4.63158 6.31579C3.96156 6.31579 3.31898 6.58195 2.8452 7.05573C2.37143 7.52951 2.10526 8.17208 2.10526 8.8421C2.10526 9.00961 2.1718 9.17026 2.29025 9.2887C2.40869 9.40714 2.56934 9.47368 2.73684 9.47368C2.90435 9.47368 3.06499 9.40714 3.18344 9.2887C3.30188 9.17026 3.36842 9.00961 3.36842 8.8421C3.36842 8.5071 3.5015 8.18581 3.73839 7.94892C3.97528 7.71203 4.29657 7.57895 4.63158 7.57895C4.79909 7.57895 4.95973 7.51241 5.07817 7.39396C5.19662 7.27552 5.26316 7.11487 5.26316 6.94737C5.26316 6.77986 5.19662 6.61922 5.07817 6.50077C4.95973 6.38233 4.79909 6.31579 4.63158 6.31579ZM5.26316 15.2632H7.31053C7.55015 15.2631 7.78261 15.3448 7.96951 15.4948C8.1564 15.6447 8.28654 15.854 8.33842 16.0879L8.92263 18.7195C8.95675 18.8733 8.95589 19.0329 8.9201 19.1864C8.88431 19.3399 8.81451 19.4834 8.71585 19.6063C8.61719 19.7292 8.49219 19.8284 8.35007 19.8965C8.20795 19.9647 8.05235 20 7.89474 20H5.84737C5.60775 20.0001 5.37528 19.9184 5.18839 19.7684C5.00149 19.6184 4.87135 19.4092 4.81947 19.1753L4.23526 16.5437C4.20114 16.3898 4.20201 16.2302 4.2378 16.0768C4.27359 15.9233 4.34339 15.7798 4.44205 15.6569C4.54071 15.534 4.66571 15.4348 4.80783 15.3666C4.94995 15.2985 5.10555 15.2631 5.26316 15.2632Z" fill="#0171A1"/>
</svg>
