<?xml version="1.0" encoding="iso-8859-1"?>
<!-- Generator: Adobe Illustrator 25.0.0, SVG Export Plug-In . SVG Version: 6.00 Build 0)  -->
<svg version="1.1" id="Layer_1" xmlns="http://www.w3.org/2000/svg" xmlns:xlink="http://www.w3.org/1999/xlink" x="0px" y="0px"
	 viewBox="0 0 24 24" style="enable-background:new 0 0 24 24;" xml:space="preserve">
<g>
	<path style="fill:#16B442;" d="M12,0.5C5.66,0.5,0.5,5.66,0.5,12S5.66,23.5,12,23.5S23.5,18.34,23.5,12S18.34,0.5,12,0.5z M12,22.5
		C6.21,22.5,1.5,17.79,1.5,12S6.21,1.5,12,1.5S22.5,6.21,22.5,12S17.79,22.5,12,22.5z"/>
	<path style="fill:#16B442;" d="M17.06,10.19l-5.5,5.5c-0.26,0.26-0.6,0.38-0.94,0.38c-0.33,0-0.67-0.12-0.93-0.38l-2.75-2.75
		c-0.52-0.52-0.52-1.36,0-1.88c0.51-0.51,1.36-0.51,1.87,0l1.81,1.82l4.57-4.57c0.5-0.5,1.37-0.5,1.87,0
		C17.58,8.83,17.58,9.67,17.06,10.19z"/>
</g>
</svg>
