<svg xmlns="http://www.w3.org/2000/svg" viewBox="0 0 383.58 383.45"><defs><style>.cls-1{fill:#16b442;}</style></defs><g id="Layer_2" data-name="Layer 2"><g id="Layer_1-2" data-name="Layer 1"><path class="cls-1" d="M287.31,132.2c0,4-2.13,7-4.87,9.71q-41.7,41.61-83.32,83.29-16.8,16.8-33.59,33.58c-6.69,6.69-13.07,6.69-19.75,0q-23-23-46-46c-4.15-4.17-5.1-9.2-2.85-14A12,12,0,0,1,108.79,192c3.41.29,6,2,8.39,4.4,12,12,24,23.93,35.91,36,2.07,2.12,3.1,2,5.13,0q53.72-53.91,107.56-107.7c4-4,8.41-5.72,13.85-3.77A11.87,11.87,0,0,1,287.31,132.2Z"/><path class="cls-1" d="M382.34,166.06c-5.32-39.3-21.57-73.72-48-103.17a188.74,188.74,0,0,0-72.17-50.11C243.84,5.59,225,.75,205.1.28c-14.46-.34-28.89-.78-43.23,1.39A187.82,187.82,0,0,0,84.8,31.77,193.74,193.74,0,0,0,4,148.2a202.07,202.07,0,0,0-4,28v3c.46.41.38.95.38,1.47a1.62,1.62,0,0,0,0,.22v1.37c-.09.73.25,1.54-.39,2.17v9.73a5.74,5.74,0,0,1,0,4.49v3c.46.42.37,1,.39,1.5v.24A1.56,1.56,0,0,1,0,204.62v3c.78,3.77.42,7.65,1,11.43,7.31,49.11,30.32,89.52,68.25,121.28,26.46,22.15,57,35.82,91.1,41.58,5.15.87,10.38.59,15.5,1.55h3a1.49,1.49,0,0,1,1.24-.39h.41c.71.08,1.48-.22,2.09.39h3a5.65,5.65,0,0,1,4.49,0h3a4.05,4.05,0,0,1,3.74,0h3.74c.61-.61,1.39-.31,2.09-.39H203a1.47,1.47,0,0,1,1.23.39h2.25c3.79-.67,7.66-.37,11.44-.87a182.78,182.78,0,0,0,47.15-12.77,193.35,193.35,0,0,0,72.5-52.75,189.53,189.53,0,0,0,30.52-48.58c8.73-20.17,14.35-41.11,15.05-63.26C383.59,192.14,384.09,179,382.34,166.06ZM191.54,359.5C99.21,359.49,24,284.26,24,191.88S99.22,24.28,191.56,24.29,359.15,99.53,359.15,191.9,283.88,359.51,191.54,359.5Z"/><path class="cls-1" d="M287.31,132.2c0,4-2.13,7-4.87,9.71q-41.7,41.61-83.32,83.29-16.8,16.8-33.59,33.58c-6.69,6.69-13.07,6.69-19.75,0q-23-23-46-46c-4.15-4.17-5.1-9.2-2.85-14A12,12,0,0,1,108.79,192c3.41.29,6,2,8.39,4.4,12,12,24,23.93,35.91,36,2.07,2.12,3.1,2,5.13,0q53.72-53.91,107.56-107.7c4-4,8.41-5.72,13.85-3.77A11.87,11.87,0,0,1,287.31,132.2Z"/><path class="cls-1" d="M287.31,132.2c0,4-2.13,7-4.87,9.71q-41.7,41.61-83.32,83.29-16.8,16.8-33.59,33.58c-6.69,6.69-13.07,6.69-19.75,0q-23-23-46-46c-4.15-4.17-5.1-9.2-2.85-14A12,12,0,0,1,108.79,192c3.41.29,6,2,8.39,4.4,12,12,24,23.93,35.91,36,2.07,2.12,3.1,2,5.13,0q53.72-53.91,107.56-107.7c4-4,8.41-5.72,13.85-3.77A11.87,11.87,0,0,1,287.31,132.2Z"/></g></g></svg>